<?xml version="1.0" standalone="no"?>
<!DOCTYPE svg PUBLIC "-//W3C//DTD SVG 1.1//EN" "http://www.w3.org/Graphics/SVG/1.1/DTD/svg11.dtd" >
<svg xmlns="http://www.w3.org/2000/svg">
<metadata></metadata>
<defs>
<font id="lucida_sansregular" horiz-adv-x="1295" >
<font-face units-per-em="2048" ascent="1638" descent="-410" />
<missing-glyph horiz-adv-x="648" />
<glyph horiz-adv-x="2048" />
<glyph horiz-adv-x="2048" />
<glyph unicode="&#xd;" horiz-adv-x="2048" />
<glyph unicode=" "  horiz-adv-x="648" />
<glyph unicode="&#x09;" horiz-adv-x="648" />
<glyph unicode="&#xa0;" horiz-adv-x="648" />
<glyph unicode="!" horiz-adv-x="648" d="M225 0v197h197v-197h-197zM225 1184v296h197v-296l-24 -789h-148z" />
<glyph unicode="&#x22;" horiz-adv-x="765" d="M111 1579h197l-24 -493h-148zM456 1579h198l-25 -493h-148z" />
<glyph unicode="#" d="M15 444l25 124h305l87 345h-324l25 123h329l112 444h127l-111 -444h263l111 444h128l-111 -444h299l-24 -123h-306l-87 -345h324l-25 -124h-329l-111 -444h-128l111 444h-263l-111 -444h-128l111 444h-299zM473 568h263l87 345h-264z" />
<glyph unicode="$" d="M216 83v170q226 -105 395 -105v531q-166 102 -228.5 163.5t-93 136.5t-30.5 146q0 88 43 168.5t116.5 129t192.5 57.5v124h98v-124q46 0 139 -16.5t182 -50.5v-161q-96 42 -162 64t-159 29v-527q54 -33 81 -49q173 -105 219 -180.5t46 -174.5q0 -148 -90 -263.5 t-256 -150.5v-123h-98v123q-176 0 -395 83zM432 1129q0 -41 16.5 -85t47 -75.5t115.5 -85.5v456q-93 -29 -136 -86t-43 -124zM709 160q92 33 132.5 95t40.5 130q0 47 -20 95.5t-153 140.5v-461z" />
<glyph unicode="%" horiz-adv-x="1369" d="M12 1110q0 166 84 268t231 102q146 0 230 -102t84 -268q0 -165 -83.5 -267.5t-230.5 -102.5q-148 0 -231.5 102.5t-83.5 267.5zM24 -37l1166 1554h154l-1165 -1554h-155zM160 1110q0 -121 45 -196t122 -75t121.5 75t44.5 196q0 122 -45 197t-121 75q-77 0 -122 -75 t-45 -197zM728 370q0 166 83.5 268t230.5 102t231 -102t84 -268q0 -165 -83.5 -267.5t-231.5 -102.5q-147 0 -230.5 102.5t-83.5 267.5zM876 370q0 -121 44.5 -196t121.5 -75t122 75t45 196q0 122 -45.5 197t-121.5 75t-121 -75t-45 -197z" />
<glyph unicode="&#x26;" horiz-adv-x="1428" d="M74 440q0 139 80 267.5t281 196.5q-100 181 -100 301q0 83 47 155.5t129.5 114.5t181.5 42q145 0 238 -87t93 -212q0 -222 -325 -386q149 -264 347 -493q37 54 53.5 99.5t27 120.5t10.5 156l-1 72h196q0 -328 -196 -566q90 -114 205 -221h-280l-73 88 q-164 -125 -383 -125q-146 0 -269.5 58.5t-192.5 172.5t-69 246zM271 489q0 -96 50.5 -189t131 -141t184.5 -48q139 0 265 91q-139 171 -220.5 293t-179.5 292q-135 -54 -183 -131.5t-48 -166.5zM533 1214q0 -102 94 -257q212 97 212 258q0 66 -41 110t-113 44 q-82 0 -117 -50t-35 -105z" />
<glyph unicode="'" horiz-adv-x="469" d="M111 1579h247l-50 -543h-148z" />
<glyph unicode="(" horiz-adv-x="666" d="M123 642q0 168 52 343t153 329t264 265v-136q-113 -122 -167 -237.5t-79.5 -260t-25.5 -303.5q0 -160 25.5 -304.5t79.5 -259.5t167 -238v-136q-163 111 -264 265t-153 329t-52 344z" />
<glyph unicode=")" horiz-adv-x="666" d="M74 -160q113 123 167 238t79 260t25 304q0 157 -25 302.5t-79 261t-167 237.5v136q163 -111 264 -265t153 -329.5t52 -342.5q0 -168 -52 -343.5t-153 -330t-264 -264.5v136z" />
<glyph unicode="*" horiz-adv-x="987" d="M110 1148l46 141l284 -125q-29 -25 -29 -67l2 -15zM211 838l206 231q9 -21 30 -35t40 -16l-156 -267zM420 1480h148l-31 -308q-18 11 -43 11t-43 -11zM500 1018q20 2 40.5 16.5t29.5 34.5l207 -231l-120 -87zM548 1164l284 125l45 -141l-303 -66l3 15q0 41 -29 67z" />
<glyph unicode="+" d="M105 518v148h469v469h148v-469h469v-148h-469v-469h-148v469h-469z" />
<glyph unicode="," horiz-adv-x="648" d="M200 0v247h247v-214q0 -171 -58.5 -256t-188.5 -98v74q32 9 51 34t32 63t13 130v20h-96z" />
<glyph unicode="-" horiz-adv-x="666" d="M111 543v148h444v-148h-444z" />
<glyph unicode="." horiz-adv-x="648" d="M200 0v247h247v-247h-247z" />
<glyph unicode="/" horiz-adv-x="1012" d="M12 -296l825 1875h162l-825 -1875h-162z" />
<glyph unicode="0" d="M130 740q0 200 56.5 381.5t176.5 288.5t285 107q166 0 285.5 -106.5t176 -288t56.5 -382.5q0 -200 -56 -380.5t-175.5 -288.5t-286.5 -108q-166 0 -285 106.5t-176 288t-57 382.5zM340 740q0 -283 73 -456t235 -173t235.5 173t73.5 456t-73.5 456t-235.5 173t-235 -173 t-73 -456z" />
<glyph unicode="1" d="M302 1332v124l432 37v-1493h-198v1332h-234z" />
<glyph unicode="2" d="M170 0v173q86 201 348 438l113 101q123 112 170.5 202.5t47.5 188.5q0 125 -76 195.5t-204 70.5q-55 0 -105.5 -10.5t-108 -33.5t-148.5 -75v174q197 93 392 93q213 0 336 -117t123 -292q0 -114 -50.5 -215t-249.5 -271l-76 -65q-83 -70 -167 -170.5t-107 -213.5h643 v-173h-881z" />
<glyph unicode="3" d="M208 11v184q211 -84 332 -84q141 0 230.5 82.5t89.5 213.5q0 128 -91.5 220t-345.5 92h-78v133l69 1q237 0 323.5 86.5t86.5 202.5q0 103 -68.5 165t-203.5 62q-146 0 -324 -83v172q127 43 198 51t139 8q235 0 346 -94t111 -249q0 -87 -32 -152.5t-97 -122t-180 -97.5 q145 -34 215.5 -87t106.5 -133t36 -172q0 -174 -119 -310.5t-398 -136.5q-138 0 -346 48z" />
<glyph unicode="4" d="M105 419v149l666 912h185v-900h198v-161h-198v-419h-185v419h-666zM298 580h486v658z" />
<glyph unicode="5" d="M249 -6v176q147 -59 280 -59q160 0 236.5 94.5t76.5 227.5q0 152 -111.5 243t-347.5 91q-53 0 -109 -7v720h749v-172h-576v-390q312 0 458.5 -142.5t146.5 -351.5q0 -192 -132.5 -326.5t-414.5 -134.5q-114 0 -256 31z" />
<glyph unicode="6" d="M137 707q0 208 62 399t190 301.5t351 110.5q69 0 133 -9t199 -47v-172q-209 80 -344 80q-198 0 -287 -167t-89 -436q57 74 109 109.5t114.5 54.5t131.5 19q126 0 229.5 -60t157.5 -164.5t54 -233.5q0 -142 -63 -266t-168 -193.5t-260 -69.5q-264 0 -392 214.5t-128 529.5 zM360 522q0 -143 71.5 -277t240.5 -134q122 0 200 89.5t78 252.5q0 176 -81.5 265.5t-202.5 89.5q-100 0 -203 -73t-103 -213z" />
<glyph unicode="7" d="M222 1295v185h950v-185q-192 -282 -316 -507t-210 -423.5t-111 -364.5h-227q34 201 96.5 331.5t175.5 313.5l404 650h-762z" />
<glyph unicode="8" d="M177 364q0 117 69.5 233.5t224.5 208.5q-141 98 -179 173t-38 161q0 163 121 270.5t323 107.5q183 0 296.5 -89.5t113.5 -230.5q0 -98 -58 -193.5t-218 -198.5q186 -91 260.5 -191.5t74.5 -231.5q0 -172 -134 -296t-366 -124q-239 0 -364.5 118.5t-125.5 282.5zM374 396 q0 -130 85 -207.5t213 -77.5q120 0 206 64t86 177q0 81 -45.5 140t-200.5 151l-140 83q-141 -109 -172.5 -179.5t-31.5 -150.5zM432 1177q0 -73 52.5 -138.5t237.5 -170.5q98 65 152.5 143t54.5 160q0 86 -68.5 142t-182.5 56q-117 0 -181.5 -57.5t-64.5 -134.5z" />
<glyph unicode="9" d="M156 991q0 137 63.5 263.5t169 194.5t254.5 68q265 0 392 -212.5t127 -510.5q0 -227 -75.5 -427.5t-210.5 -302t-342 -101.5q-116 0 -301 46v167q188 -65 320 -65q122 0 208 64.5t134.5 210t48.5 317.5q-66 -81 -114 -115t-105.5 -52t-121.5 -18q-123 0 -227.5 65.5 t-162 171.5t-57.5 236zM353 1025q0 -166 76.5 -265.5t209.5 -99.5q109 0 205.5 79t96.5 211q0 114 -42.5 221.5t-109 153t-158.5 45.5q-131 0 -204.5 -93t-73.5 -252z" />
<glyph unicode=":" horiz-adv-x="648" d="M225 0v197h197v-197h-197zM225 888v198h197v-198h-197z" />
<glyph unicode=";" horiz-adv-x="648" d="M225 0v197h197v-166q0 -128 -22 -186.5t-70 -105t-105 -60.5v74q38 20 54.5 64.5t16.5 159.5v23h-71zM225 888v198h197v-198h-197z" />
<glyph unicode="&#x3c;" d="M105 592l1086 543v-173l-755 -370l755 -370v-173z" />
<glyph unicode="=" d="M105 345v148h1086v-148h-1086zM105 691v148h1086v-148h-1086z" />
<glyph unicode="&#x3e;" d="M105 49v173l755 370l-755 370v173l1086 -543z" />
<glyph unicode="?" horiz-adv-x="864" d="M37 1295v167q185 56 347 56q201 0 322 -91.5t121 -247.5q0 -53 -15 -100.5t-41.5 -87.5t-110.5 -120l-62 -58q-92 -88 -121.5 -145t-29.5 -163v-110h-197v54q0 111 28.5 183.5t118.5 175.5l63 73q99 113 128 173.5t29 121.5q0 86 -68 139.5t-189 53.5q-151 0 -323 -74z M250 0v197h197v-197h-197z" />
<glyph unicode="@" horiz-adv-x="1758" d="M93 576q0 229 131 459t351 356t453 126q186 0 335.5 -82t235 -228t85.5 -317q0 -156 -71.5 -299.5t-189 -219t-256.5 -75.5q-89 0 -127.5 34.5t-38.5 80.5q0 42 20 105l40 126h-12q-93 -179 -195 -262.5t-192 -83.5t-141.5 63.5t-51.5 160.5q0 156 84 325.5t196 251 t245 81.5q31 0 79 -3q50 -3 78 -3h137l-126 -636q-6 -32 -6 -62q0 -33 19 -50t57 -17q87 0 170 72t127 172t44 222q0 236 -166 385t-394 149q-203 0 -393.5 -114t-303 -311t-112.5 -396q0 -133 68.5 -257.5t192 -189.5t291.5 -65q58 0 125 8.5t176 63.5l36 -102 q-180 -81 -353 -81q-186 0 -334.5 77.5t-230.5 227t-82 308.5zM623 561q0 -64 22.5 -103t60.5 -39q55 0 155 107t212 307l39 195q-92 33 -160 33q-166 0 -247.5 -168t-81.5 -332z" />
<glyph unicode="A" horiz-adv-x="1413" d="M17 0l587 1480h208l578 -1480h-227l-161 410h-627l-163 -410h-195zM436 566h505l-252 638z" />
<glyph unicode="B" horiz-adv-x="1178" d="M191 0v1480h384q251 0 355 -96.5t104 -229.5q0 -108 -70 -214.5t-234 -168.5q143 -44 214.5 -100.5t110 -136t38.5 -164.5q0 -103 -53 -192t-140 -133.5t-273 -44.5h-436zM399 157h43q222 0 289 24.5t103.5 81t36.5 127.5q0 128 -117.5 217.5t-295.5 89.5h-59v-540z M399 830h67q183 0 268 78.5t85 198.5q0 105 -75.5 160.5t-262.5 55.5h-82v-493z" />
<glyph unicode="C" horiz-adv-x="1417" d="M104 739q0 341 180 559.5t552 218.5q198 0 465 -65v-197q-224 77 -308.5 91t-160.5 14q-266 0 -385.5 -180.5t-119.5 -442.5q0 -273 137.5 -441.5t389.5 -168.5q70 0 139.5 12.5t138.5 37t171 79.5v-180q-91 -47 -162.5 -69.5t-148.5 -33t-167 -10.5q-374 0 -547.5 221 t-173.5 555z" />
<glyph unicode="D" horiz-adv-x="1534" d="M191 0v1480h492q285 0 432 -82.5t230.5 -241t83.5 -381.5q0 -211 -76.5 -387t-232.5 -282t-434 -106h-495zM401 157h269q210 0 314.5 66.5t163.5 210.5t59 321q0 156 -51 284.5t-165 206t-417 77.5h-173v-1166z" />
<glyph unicode="E" horiz-adv-x="1110" d="M191 0v1480h827v-157h-617v-475h517v-155h-517v-536h660v-157h-870z" />
<glyph unicode="F" horiz-adv-x="1098" d="M191 0v1480h827v-157h-617v-496h518v-155h-518v-672h-210z" />
<glyph unicode="G" horiz-adv-x="1480" d="M104 740q0 341 180.5 559t549.5 218q223 0 467 -67v-194q-225 77 -309.5 90.5t-159.5 13.5q-267 0 -386 -181.5t-119 -439.5q0 -160 50.5 -298.5t169.5 -229.5t320 -91q51 0 96 5.5t131 31.5v482h209v-599q-194 -56 -283.5 -66.5t-185.5 -10.5q-266 0 -418.5 96t-232 277 t-79.5 404z" />
<glyph unicode="H" horiz-adv-x="1505" d="M191 0v1480h210v-624h704v624h210v-1480h-210v699h-704v-699h-210z" />
<glyph unicode="I" horiz-adv-x="590" d="M190 0v1480h210v-1480h-210z" />
<glyph unicode="J" horiz-adv-x="637" d="M-184 -89q120 -39 214 -39q64 0 110 23.5t74.5 78t28.5 206.5v1300h210v-1293q0 -255 -119.5 -369t-337.5 -114q-70 0 -180 21v186z" />
<glyph unicode="K" horiz-adv-x="1337" d="M191 0v1480h197v-728l599 728h211l-580 -706l683 -774h-266l-647 750v-750h-197z" />
<glyph unicode="L" horiz-adv-x="1092" d="M191 0v1480h210v-1323h666v-157h-876z" />
<glyph unicode="M" horiz-adv-x="1764" d="M191 0v1480h291l410 -1145l422 1145h260v-1480h-196v1204l-408 -1105h-203l-396 1108v-1207h-180z" />
<glyph unicode="N" horiz-adv-x="1513" d="M191 0v1480h206l745 -1143v1143h180v-1480h-205l-746 1143v-1143h-180z" />
<glyph unicode="O" horiz-adv-x="1591" d="M104 740q0 220 81.5 400.5t240.5 278.5t370 98t370 -98t240.5 -278.5t81.5 -400.5q0 -219 -80.5 -398.5t-238 -279t-373.5 -99.5q-210 0 -365.5 94t-241 274.5t-85.5 408.5zM327 742q0 -288 122.5 -455t346.5 -167t346.5 167t122.5 455q0 287 -123.5 452.5t-345.5 165.5 t-345.5 -165.5t-123.5 -452.5z" />
<glyph unicode="P" horiz-adv-x="1132" d="M191 0v1480h403q215 0 308.5 -42t143.5 -129t50 -217q0 -152 -66.5 -266t-213.5 -176t-324 -62h-93v-588h-208zM399 747h85q209 0 300 95t91 235q0 76 -29 128.5t-93 85t-225 32.5h-129v-576z" />
<glyph unicode="Q" horiz-adv-x="1591" d="M104 740q0 220 81 400.5t240.5 278.5t370.5 98q212 0 371.5 -98.5t240 -279t80.5 -402.5q0 -228 -87.5 -414.5t-291.5 -291.5q255 -112 529 -160l-133 -167q-349 113 -585 269q-94 -10 -145 -10q-186 0 -347 97.5t-242.5 278.5t-81.5 401zM327 742q0 -288 122.5 -455 t346.5 -167q222 0 345.5 165.5t123.5 454.5t-123.5 454.5t-345.5 165.5t-345.5 -165.5t-123.5 -452.5z" />
<glyph unicode="R" d="M191 0v1480h448q249 0 344 -111.5t95 -255.5q0 -84 -33.5 -166t-95.5 -146t-169 -108l494 -693h-258l-421 626h-196v-626h-208zM399 783h68q233 0 314.5 97t81.5 213q0 69 -30.5 120.5t-95 80.5t-206.5 29h-132v-540z" />
<glyph unicode="S" horiz-adv-x="1103" d="M100 28v208q178 -82 260 -99t152 -17q127 0 200.5 69.5t73.5 166.5q0 73 -38 135q-39 61 -194 149l-102 59q-204 116 -274 212t-70 213q0 105 55.5 197t149 144t235.5 52q171 0 361 -57v-192q-165 65 -226.5 78.5t-122.5 13.5q-128 0 -189.5 -67t-61.5 -137 q0 -48 29 -97.5t78 -85t135 -84.5l106 -60q206 -117 275 -214q69 -98 69 -225q0 -173 -131.5 -300t-387.5 -127q-79 0 -153 10.5t-229 54.5z" />
<glyph unicode="T" d="M18 1323v157h1260v-157h-525v-1323h-210v1323h-525z" />
<glyph unicode="U" horiz-adv-x="1419" d="M179 548v932h210v-934q0 -244 91 -335t254 -91q103 0 174 35.5t110 115.5t39 268v941h184v-938q0 -241 -59.5 -347.5t-168 -169t-287.5 -62.5q-191 0 -309 65t-178 178t-60 342z" />
<glyph unicode="V" horiz-adv-x="1339" d="M36 1480h210l458 -1212l442 1212h184l-537 -1480h-198z" />
<glyph unicode="W" horiz-adv-x="1752" d="M2 1480h202l303 -1169l279 1169h202l264 -1153l326 1153h171l-415 -1480h-209l-261 1141l-273 -1141h-208z" />
<glyph unicode="X" horiz-adv-x="1282" d="M16 0l491 743l-467 737h248l356 -558l374 558h198l-473 -715l485 -765h-248l-376 587l-389 -587h-199z" />
<glyph unicode="Y" horiz-adv-x="1276" d="M17 1480h240l384 -668l414 668h195l-529 -858v-622h-210v618z" />
<glyph unicode="Z" horiz-adv-x="1238" d="M95 0v168l795 1155h-746v157h998v-157l-795 -1155h795v-168h-1047z" />
<glyph unicode="[" horiz-adv-x="666" d="M197 -296v1875h395v-148h-222v-1579h222v-148h-395z" />
<glyph unicode="\" horiz-adv-x="1012" d="M12 1579h162l825 -1875h-162z" />
<glyph unicode="]" horiz-adv-x="666" d="M74 -148h222v1579h-222v148h395v-1875h-395v148z" />
<glyph unicode="^" d="M105 395l543 1085l543 -1085h-166l-377 754l-377 -754h-166z" />
<glyph unicode="_" horiz-adv-x="1024" d="M86 0h851v-148h-851v148z" />
<glyph unicode="`" horiz-adv-x="1258" d="M358 1579h222l222 -296h-173z" />
<glyph unicode="a" horiz-adv-x="1131" d="M103 273q0 160 138 264.5t441 104.5h46v131q0 78 -21 113.5t-65.5 55.5t-110.5 20q-153 0 -334 -96v163q199 81 375 81q96 0 176.5 -30.5t128.5 -96t48 -210.5v-492q0 -82 13 -110.5t36.5 -43.5t54.5 -15q13 0 38 4l14 -109q-67 -32 -148 -32q-54 0 -104 35t-72 128 q-88 -81 -173.5 -122t-167.5 -41q-115 0 -214 76t-99 222zM300 305q0 -71 51.5 -120t120.5 -49q62 0 126 27.5t130 81.5v281l-63 2q-155 0 -260 -60t-105 -163z" />
<glyph unicode="b" horiz-adv-x="1289" d="M197 -12v1591h197v-697q61 114 151.5 171t211.5 57q201 0 311 -148t110 -386q0 -257 -124.5 -429t-339.5 -172q-63 0 -120 15t-101.5 43t-98.5 90l-24 -135h-173zM394 259q101 -90 161 -113t129 -23q145 0 214.5 122t69.5 311q0 176 -61.5 279t-190.5 103 q-82 0 -162.5 -44.5t-159.5 -134.5v-500z" />
<glyph unicode="c" horiz-adv-x="1049" d="M111 549q0 240 133 400.5t411 160.5q128 0 284 -35v-165q-167 49 -272 49q-166 0 -250 -123.5t-84 -292.5q0 -183 94.5 -296t245.5 -113q135 0 278 69v-170q-191 -58 -330 -58q-145 0 -266 78.5t-182.5 206.5t-61.5 289z" />
<glyph unicode="d" horiz-adv-x="1289" d="M111 509q0 258 124 429.5t339 171.5q63 0 120 -15t101.5 -42.5t98.5 -90.5v617h198v-1579h-198v204q-60 -114 -150.5 -171.5t-211.5 -57.5q-200 0 -310.5 147.5t-110.5 386.5zM321 529q0 -177 61.5 -279t190.5 -102q82 0 162.5 45t158.5 134v500q-102 90 -161.5 112.5 t-128.5 22.5q-144 0 -213.5 -121t-69.5 -312z" />
<glyph unicode="e" horiz-adv-x="1141" d="M111 548q0 153 64 291t167.5 205t243.5 67q188 0 300 -135t112 -404l-1 -60h-685q16 -144 62 -222t122.5 -121.5t194.5 -43.5q60 0 119.5 10.5t182.5 55.5v-156q-198 -60 -339 -60q-253 0 -398 170.5t-145 402.5zM321 660h479q0 163 -63.5 233t-162.5 70 q-113 0 -176.5 -75.5t-76.5 -227.5z" />
<glyph unicode="f" horiz-adv-x="753" d="M80 938v148h154v130q0 134 34.5 210.5t113 127t205.5 50.5q100 0 226 -33v-156q-133 41 -213 41q-46 0 -84 -14.5t-61 -51.5t-23 -153v-151h271v-148h-271v-938h-198v938h-154z" />
<glyph unicode="g" horiz-adv-x="1277" d="M111 550q0 155 60 289.5t166.5 202.5t243.5 68q61 0 113.5 -14t98 -42t101.5 -92v124h198v-790q0 -345 -57.5 -472t-180 -185t-291.5 -58q-55 0 -118.5 6t-113 15.5t-130.5 36.5l23 171q171 -81 338 -81q187 0 259.5 95.5t72.5 257.5v171q-43 -90 -134 -159t-222 -69 q-223 0 -325 160.5t-102 364.5zM321 551q0 -157 59 -255.5t192 -98.5q86 0 166.5 45t155.5 134v451q-65 68 -135.5 101.5t-147.5 33.5q-131 0 -210.5 -105.5t-79.5 -305.5z" />
<glyph unicode="h" horiz-adv-x="1271" d="M197 0v1579h197v-697q75 109 174.5 168.5t206.5 59.5q138 0 224 -87.5t86 -242.5v-780h-197v716q0 113 -20 149t-56 55.5t-77 19.5q-73 0 -157.5 -45t-183.5 -192v-703h-197z" />
<glyph unicode="i" horiz-adv-x="592" d="M197 0v1086h197v-1086h-197zM197 1283v197h197v-197h-197z" />
<glyph unicode="j" horiz-adv-x="623" d="M-154 -213q138 -58 210 -58q49 0 89.5 18.5t61.5 59t21 193.5v1086h198v-1086q0 -165 -41 -245.5t-123.5 -127t-189.5 -46.5q-105 0 -226 50v156zM228 1283v197h198v-197h-198z" />
<glyph unicode="k" horiz-adv-x="1197" d="M197 0v1579h197v-1020l460 527h212l-439 -507l530 -579h-252l-511 557v-557h-197z" />
<glyph unicode="l" horiz-adv-x="592" d="M197 0v1579h197v-1579h-197z" />
<glyph unicode="m" horiz-adv-x="1912" d="M197 0v1086h197v-204q60 95 153.5 161.5t216.5 66.5q71 0 124 -23t96 -65t77 -140q60 98 152.5 163.5t211.5 65.5q116 0 209 -72t93 -249v-790h-198v759q0 108 -45.5 147t-101.5 39q-70 0 -145.5 -43.5t-175.5 -173.5v-728h-198v759q0 109 -46 148t-104 39 q-71 0 -143.5 -43t-175.5 -175v-728h-197z" />
<glyph unicode="n" horiz-adv-x="1271" d="M197 0v1086h197v-204q75 109 174.5 168.5t206.5 59.5q138 0 224 -87.5t86 -242.5v-780h-197v716q0 113 -20 149t-56 55.5t-77 19.5q-73 0 -157.5 -45t-183.5 -192v-703h-197z" />
<glyph unicode="o" horiz-adv-x="1258" d="M111 543q0 158 61 293.5t177.5 204.5t279.5 69q155 0 270 -63t181.5 -200t66.5 -304q0 -160 -62 -295.5t-177.5 -204t-278.5 -68.5q-155 0 -269.5 63.5t-181.5 200t-67 304.5zM321 543q0 -201 81 -310.5t227 -109.5q147 0 228 109.5t81 310.5q0 202 -81.5 310.5 t-227.5 108.5t-227 -108.5t-81 -310.5z" />
<glyph unicode="p" horiz-adv-x="1289" d="M197 -395v1481h197v-204q61 114 151.5 171t211.5 57q201 0 311 -148t110 -386q0 -155 -51 -295t-158.5 -223t-243.5 -83q-54 0 -142.5 16t-188.5 132v-518h-197zM394 259q101 -90 161 -113t129 -23q145 0 214.5 122t69.5 311q0 176 -61.5 279t-190.5 103 q-82 0 -162.5 -44.5t-159.5 -134.5v-500z" />
<glyph unicode="q" horiz-adv-x="1289" d="M111 509q0 258 124 429.5t339 171.5q63 0 120 -15t101.5 -42.5t98.5 -90.5v124h198v-1481h-198v599q-60 -114 -150.5 -171.5t-211.5 -57.5q-200 0 -310.5 147.5t-110.5 386.5zM321 529q0 -177 61.5 -279t190.5 -102q82 0 162.5 45t158.5 134v500q-102 90 -161.5 112.5 t-128.5 22.5q-144 0 -213.5 -121t-69.5 -312z" />
<glyph unicode="r" horiz-adv-x="838" d="M197 0v1086h197v-204q56 109 145.5 168.5t194.5 59.5q30 0 63 -5v-184q-50 17 -90 17q-93 0 -171.5 -55.5t-141.5 -166.5v-716h-197z" />
<glyph unicode="s" horiz-adv-x="1044" d="M157 38v181q193 -96 336 -96q84 0 140.5 46t56.5 115q0 43 -28 84t-129 83l-115 49q-133 55 -194 128q-61 72 -61 177q0 131 95 218t281 87q91 0 225 -25l41 -8v-164q-165 49 -263 49q-95 0 -142 -41t-47 -97q0 -44 32 -79q31 -36 112 -71l95 -40q191 -81 243 -160 t52 -172q0 -89 -48.5 -165t-143 -119t-210.5 -43q-135 0 -328 63z" />
<glyph unicode="t" horiz-adv-x="766" d="M69 938v148h136v197l197 19v-216h284v-148h-284v-602q0 -114 44 -163.5t140 -49.5q39 0 95 13v-136q-91 -25 -158 -25q-146 0 -232 84.5t-86 240.5v638h-136z" />
<glyph unicode="u" horiz-adv-x="1271" d="M185 306v780h197v-716q0 -113 20 -149t56 -56t78 -20q72 0 156.5 45t183.5 192v704h197v-1086h-197v204q-76 -110 -175 -169.5t-206 -59.5q-137 0 -223.5 87.5t-86.5 243.5z" />
<glyph unicode="v" horiz-adv-x="1060" d="M18 1086h197l316 -845l333 845h184l-429 -1086h-197z" />
<glyph unicode="w" horiz-adv-x="1578" d="M12 1086h193l238 -841l257 841h197l225 -841l273 841h169l-354 -1086h-198l-230 841l-260 -841h-199z" />
<glyph unicode="x" horiz-adv-x="1256" d="M88 0l413 561l-401 525h234l317 -418l287 418h192l-376 -551l409 -535h-234l-327 430l-316 -430h-198z" />
<glyph unicode="y" horiz-adv-x="1070" d="M16 1086h213l311 -818l332 818h186l-593 -1481h-205l176 395z" />
<glyph unicode="z" horiz-adv-x="1174" d="M123 0v148l672 790h-641v148h884v-148l-672 -790h685v-148h-928z" />
<glyph unicode="{" horiz-adv-x="666" d="M25 568v148h49q153 0 153 161q0 68 -16 140l-19 87q-19 85 -19 168q0 78 42.5 148.5t113.5 110.5t202 48v-148h-28q-53 0 -105.5 -31t-52.5 -93q0 -23 13 -95l17 -102q11 -65 11 -157q0 -105 -35 -176t-112 -135q77 -65 112 -135.5t35 -178.5q0 -90 -11 -155l-17 -102 q-13 -72 -13 -96q0 -60 51.5 -91.5t106.5 -31.5h28v-148q-131 8 -202 48.5t-113.5 110.5t-42.5 149q0 82 19 167l19 87q16 72 16 142q0 160 -153 160h-49z" />
<glyph unicode="|" horiz-adv-x="543" d="M197 -296v1875h148v-1875h-148z" />
<glyph unicode="}" horiz-adv-x="666" d="M136 -148h28q55 0 106.5 31.5t51.5 91.5q0 26 -13 96l-17 102q-12 64 -12 158q0 103 34.5 173.5t112.5 137.5q-77 65 -112 135.5t-35 176.5q0 92 12 156l17 102q13 70 13 97q0 59 -52 90.5t-106 31.5h-28v148q131 -8 202 -48t113.5 -110.5t42.5 -149.5q0 -82 -19 -167 l-19 -87q-16 -72 -16 -142q0 -159 152 -159h50v-148h-50q-152 0 -152 -162q0 -68 16 -140l19 -87q19 -85 19 -168q0 -78 -42.5 -148t-113.5 -110.5t-202 -48.5v148z" />
<glyph unicode="~" d="M105 444q0 143 78 236t198 93q52 0 101 -18.5t114 -52.5l107 -56l128 -69q49 -22 91 -22q47 0 84 45.5t37 132.5v7h148q-12 -185 -88 -259t-178 -74q-55 0 -100 14.5t-145 65.5l-112 58l-119 62q-40 18 -71 18q-44 0 -84.5 -42t-40.5 -139h-148z" />
<glyph unicode="&#xa1;" horiz-adv-x="648" d="M225 -99l25 790h148l24 -790v-296h-197v296zM225 888v198h197v-198h-197z" />
<glyph unicode="&#xa2;" d="M205 738q0 108 31.5 207t88.5 172q51 66 121 109q41 25 84.5 41t132.5 28v185h99v-185q133 -6 284 -46v-166q-177 60 -284 70v-840q46 0 127 16t157 52v-150q-81 -31 -161 -44.5t-123 -13.5v-173h-99v173q-98 9 -144 31.5t-93 57.5q-109 82 -165 207t-56 269zM421 732 q0 -170 59 -269t183 -139v820q-74 -7 -131 -59t-84 -140t-27 -213z" />
<glyph unicode="&#xa3;" d="M247 0v173q81 26 124.5 70t64.5 98.5t21 147.5v227h-179v148h179v215q0 164 48 251t134.5 137t210.5 50q104 0 227 -30v-167q-124 49 -239 49q-54 0 -95.5 -20t-65 -63t-23.5 -147v-275h216v-148h-216v-127q0 -174 -42 -258t-131 -158h611v-173h-845z" />
<glyph unicode="&#xa4;" horiz-adv-x="1296" d="M98 278l195 195q-90 119 -90 267t90 267l-195 196l87 87l195 -195q63 45 129.5 67t137.5 22t138 -22t129 -67l195 195l88 -87l-195 -196q89 -119 89 -267t-89 -267l195 -195l-88 -87l-195 195q-62 -45 -129 -67.5t-138 -22.5t-137.5 22.5t-129.5 67.5l-195 -195zM351 740 q0 -78 39.5 -148.5t106 -109t150.5 -38.5t150.5 38.5t106 109t39.5 148.5q0 77 -38.5 147t-106 109.5t-151.5 39.5t-151.5 -39.5t-106 -109.5t-38.5 -147z" />
<glyph unicode="&#xa5;" d="M80 1480h233l360 -575l388 575h179l-500 -740h296v-148h-296v-99h296v-148h-296v-345h-197v345h-296v148h296v99h-296v148h296z" />
<glyph unicode="&#xa6;" horiz-adv-x="543" d="M197 -296v740h148v-740h-148zM197 839v740h148v-740h-148z" />
<glyph unicode="&#xa7;" d="M221 -80q102 -44 167.5 -64.5t125.5 -30.5t118 -10q121 0 205.5 49t84.5 131q0 42 -19.5 73.5t-48.5 53.5t-162 80l-177 75q-289 124 -289 336q0 49 15.5 99t42 93.5t88.5 106.5q-60 40 -86 73.5t-40.5 77t-14.5 89.5q0 145 117 255t353 110q150 0 345 -47v-160 q-202 59 -348 59q-128 0 -208 -52t-80 -133q0 -55 33 -95t142 -83l136 -55q232 -93 299 -173q67 -81 67 -193q0 -61 -22.5 -126.5t-126.5 -181.5q64 -37 95 -75t50 -90t19 -103q0 -129 -115 -236t-376 -107q-86 0 -159 12t-231 62v180zM398 661q0 -67 52.5 -122.5 t176.5 -107.5l213 -90q74 99 74 194q0 64 -40.5 111.5t-179.5 106.5l-222 93q-74 -90 -74 -185z" />
<glyph unicode="&#xa8;" horiz-adv-x="1258" d="M345 1283v173h173v-173h-173zM740 1283v173h173v-173h-173z" />
<glyph unicode="&#xa9;" horiz-adv-x="1752" d="M99 740q0 211 105 390.5t285 283t387 103.5t387.5 -103.5t285 -283t104.5 -390.5q0 -215 -109.5 -397t-288 -281t-379.5 -99t-379.5 99t-288 281t-109.5 397zM210 740q0 -167 93 -331.5t238.5 -249.5t334.5 -85q191 0 338 88t237.5 251t90.5 327q0 162 -88 324 t-236.5 252t-341.5 90q-192 0 -340.5 -90t-237 -252t-88.5 -324zM475 735q0 173 106.5 308t326.5 135q93 0 226 -26l26 -5v-123q-136 56 -244 56q-80 0 -150.5 -41t-106.5 -122t-36 -178q0 -152 83.5 -242t227.5 -90q113 0 226 62v-124q-141 -49 -255 -49q-120 0 -222 56 t-155 158t-53 225z" />
<glyph unicode="&#xaa;" horiz-adv-x="864" d="M72 935q0 77 46.5 145t145 101.5t236.5 33.5h58v37q0 73 -45 107.5t-118 34.5q-132 0 -276 -83v147q147 59 308 59q110 0 171 -25t97 -74t36 -160v-286q0 -53 7.5 -70t27 -27.5t42.5 -10.5q5 0 16 1v-117q-64 -20 -108 -20q-104 0 -148 94q-51 -53 -114 -79.5t-139 -26.5 q-112 0 -177.5 65t-65.5 154zM245 942q0 -49 32 -76.5t76 -27.5q42 0 100.5 23.5t104.5 73.5v157h-49q-132 0 -198 -40.5t-66 -109.5z" />
<glyph unicode="&#xab;" horiz-adv-x="1073" d="M111 543l395 444l98 -74l-296 -370l296 -370l-98 -74zM506 543l395 444l98 -74l-296 -370l296 -370l-98 -74z" />
<glyph unicode="&#xac;" d="M105 691v148h1086v-494h-148v346h-938z" />
<glyph unicode="&#xad;" horiz-adv-x="666" d="M111 543v148h444v-148h-444z" />
<glyph unicode="&#xae;" d="M204 1073q0 119 59.5 222.5t162 162.5t222.5 59t223 -59t162 -162.5t59 -222.5q0 -121 -61.5 -225t-163 -161.5t-219.5 -57.5t-219.5 57.5t-163 161.5t-61.5 225zM303 1073q0 -93 48.5 -175.5t130 -126t166.5 -43.5t166.5 43.5t130.5 126t49 175.5q0 91 -46.5 172 t-129 127.5t-170.5 46.5t-170.5 -46.5t-128.5 -127.5t-46 -172zM469 802v530h154q89 0 125 -14.5t57.5 -44t21.5 -79.5q0 -48 -27 -87t-82 -68l124 -237h-113l-113 216h-48v-216h-99zM568 1092h43q52 0 78.5 26t26.5 67q0 34 -20.5 54t-80.5 20h-47v-167z" />
<glyph unicode="&#xb0;" horiz-adv-x="567" d="M111 1345q0 67 49.5 119.5t123.5 52.5q73 0 122.5 -52.5t49.5 -119.5q0 -68 -49.5 -120.5t-122.5 -52.5t-123 52.5t-50 120.5zM197 1345q0 -38 28 -62.5t59 -24.5q30 0 58 24.5t28 62.5t-28.5 62t-57.5 24q-30 0 -58.5 -24t-28.5 -62z" />
<glyph unicode="&#xb1;" d="M105 0v148h1086v-148h-1086zM105 666v148h469v370h148v-370h469v-148h-469v-370h-148v370h-469z" />
<glyph unicode="&#xb2;" horiz-adv-x="864" d="M136 740v136q35 63 73.5 98.5t113.5 85.5l120 79q68 46 90.5 79.5t22.5 71.5q0 55 -42.5 82.5t-128.5 27.5q-116 0 -249 -64v134q150 48 284 48q152 0 236.5 -60t84.5 -154q0 -75 -47 -137.5t-199 -143.5l-64 -34q-96 -51 -132 -113h454v-136h-617z" />
<glyph unicode="&#xb3;" horiz-adv-x="864" d="M154 755v142q155 -58 255 -58q68 0 110 30t42 76q0 55 -56.5 91.5t-191.5 36.5h-49v124h53q122 0 183 29t61 86q0 42 -37 62t-92 20q-123 0 -278 -58v136q153 46 292 46q148 0 221 -53t73 -131q0 -71 -59 -121t-177 -79q129 -16 185.5 -73t56.5 -128q0 -82 -78 -150 t-228 -68q-142 0 -286 40z" />
<glyph unicode="&#xb4;" horiz-adv-x="1258" d="M456 1283l222 296h222l-271 -296h-173z" />
<glyph unicode="&#xb5;" horiz-adv-x="1283" d="M197 -395v1481h197v-716q0 -123 55 -166.5t127 -43.5q83 0 161 55.5t151 166.5v704h197v-1086h-197v204q-70 -114 -149 -171.5t-167 -57.5q-51 0 -95.5 12.5t-82.5 37.5v-420h-197z" />
<glyph unicode="&#xb6;" d="M216 1154q0 96 36 171t112.5 115t270.5 40h395v-1776h-123v1653h-148v-1653h-124v1036q-193 13 -306 122.5t-113 291.5z" />
<glyph unicode="&#xb8;" horiz-adv-x="1258" d="M510 -294q40 -8 64 -8q49 0 75.5 19.5t26.5 49.5q0 75 -124 93l87 140l91 1l-68 -108q157 -38 157 -146q0 -60 -53.5 -99.5t-133.5 -39.5q-50 0 -122 19v79z" />
<glyph unicode="&#xb9;" horiz-adv-x="864" d="M210 1369v111l308 25v-765h-172v629h-136z" />
<glyph unicode="&#xba;" horiz-adv-x="864" d="M62 1116q0 159 88.5 280t281.5 121t281.5 -121t88.5 -279q0 -159 -88.5 -280t-281.5 -121t-281.5 121t-88.5 279zM247 1117q0 -146 54 -212t131 -66q78 0 131.5 66t53.5 212q0 144 -53 210.5t-132 66.5q-78 0 -131.5 -66.5t-53.5 -210.5z" />
<glyph unicode="&#xbb;" horiz-adv-x="1073" d="M74 173l296 370l-296 370l99 74l394 -444l-394 -444zM469 173l296 370l-296 370l98 74l395 -444l-395 -444z" />
<glyph unicode="&#xbc;" horiz-adv-x="1641" d="M99 -36l1091 1553h192l-1091 -1554zM99 1369v111l308 25v-765h-172v629h-136zM852 197v155l351 401h191v-432h124v-124h-124v-197h-172v197h-370zM989 321h233v266z" />
<glyph unicode="&#xbd;" horiz-adv-x="1641" d="M37 -37l1098 1554h179l-1085 -1554h-192zM86 1369v111l309 25v-765h-173v629h-136zM925 0v136q35 63 72.5 97.5t114.5 85.5l120 80q68 45 91 79q22 33 22 72q0 55 -42.5 82.5t-127.5 27.5q-118 0 -250 -64v133q149 48 286 48q151 0 235 -60t84 -154q0 -74 -46 -136 t-200 -144l-64 -34q-95 -51 -131 -113h453v-136h-617z" />
<glyph unicode="&#xbe;" horiz-adv-x="1789" d="M123 755v142q155 -58 255 -58q68 0 110 30t42 76q0 55 -56.5 91.5t-191.5 36.5h-49v124h53q122 0 183 29t61 86q0 42 -37 62t-92 20q-123 0 -278 -58v136q153 46 292 46q148 0 221 -53t73 -131q0 -71 -59 -121t-177 -79q129 -16 185.5 -73t56.5 -128q0 -82 -78 -150 t-228 -68q-142 0 -286 40zM283 -36l1092 1553h191l-1091 -1554zM999 197v155l352 401h191v-432h123v-124h-123v-197h-173v197h-370zM1136 321h233v266z" />
<glyph unicode="&#xbf;" horiz-adv-x="864" d="M37 -94q0 53 14.5 100t40.5 87t112 121l61 59q73 69 100 109t39 83.5t12 114.5v111h198v-55q0 -110 -29 -183t-118 -176l-64 -72q-98 -112 -127 -173t-29 -123q0 -85 67.5 -139t189.5 -54q149 0 323 75v-167q-186 -56 -348 -56q-200 0 -321 91t-121 247zM416 888v198h198 v-198h-198z" />
<glyph unicode="&#xc0;" horiz-adv-x="1413" d="M17 0l587 1480h208l578 -1480h-227l-161 410h-627l-163 -410h-195zM433 1900h222l222 -296h-173zM436 566h505l-252 638z" />
<glyph unicode="&#xc1;" horiz-adv-x="1413" d="M17 0l587 1480h208l578 -1480h-227l-161 410h-627l-163 -410h-195zM436 566h505l-252 638zM531 1604l222 296h222l-271 -296h-173z" />
<glyph unicode="&#xc2;" horiz-adv-x="1413" d="M17 0l587 1480h208l578 -1480h-227l-161 410h-627l-163 -410h-195zM370 1604l222 296h222l222 -296h-173l-160 197l-160 -197h-173zM436 566h505l-252 638z" />
<glyph unicode="&#xc3;" horiz-adv-x="1413" d="M17 0l587 1480h208l578 -1480h-227l-161 410h-627l-163 -410h-195zM370 1604q6 119 55.5 176.5t127.5 57.5q67 0 131 -26l47 -19l69 -31q23 -10 40 -10q21 0 45.5 16t27.5 70h123q0 -83 -24 -130.5t-61.5 -75.5t-98.5 -28q-76 0 -136 28l-60 28q-35 16 -52 23t-38 7 q-64 0 -73 -86h-123zM436 566h505l-252 638z" />
<glyph unicode="&#xc4;" horiz-adv-x="1413" d="M17 0l587 1480h208l578 -1480h-227l-161 410h-627l-163 -410h-195zM419 1604v173h173v-173h-173zM436 566h505l-252 638zM814 1604v173h173v-173h-173z" />
<glyph unicode="&#xc5;" horiz-adv-x="1413" d="M17 0l587 1480q-28 26 -42.5 56.5t-14.5 66.5q0 66 48 113t113 47t112.5 -47t47.5 -113q0 -35 -14 -66t-42 -57l578 -1480h-227l-161 410h-627l-163 -410h-195zM436 566h505l-252 638zM621 1603q0 -35 25.5 -61t61.5 -26t61 25.5t25 61.5q0 35 -25 60.5t-61 25.5 t-61.5 -25.5t-25.5 -60.5z" />
<glyph unicode="&#xc6;" horiz-adv-x="1857" d="M18 0l861 1480h883v-157h-618v-475h518v-155h-518v-536h664v-157h-874v414h-483l-241 -414h-192zM540 569h394v671z" />
<glyph unicode="&#xc7;" horiz-adv-x="1417" d="M104 723q0 363 182 578.5t550 215.5q198 0 465 -65v-197q-224 77 -308.5 91t-160.5 14q-266 0 -385.5 -180.5t-119.5 -442.5q0 -273 137.5 -441.5t389.5 -168.5q70 0 139.5 12.5t138.5 37t171 79.5v-180q-143 -76 -257.5 -94t-195.5 -18l-41 -68q125 -29 154.5 -71 t29.5 -76q0 -36 -26 -72t-86 -54t-106 -18q-62 0 -159 34v79q53 -19 121 -19q51 0 80.5 19.5t29.5 44.5q0 32 -44 60t-125 39l71 105q-234 19 -362.5 113.5t-205.5 254.5t-77 388z" />
<glyph unicode="&#xc8;" horiz-adv-x="1110" d="M191 0v1480h827v-157h-617v-475h517v-155h-517v-536h660v-157h-870zM355 1900h222l222 -296h-173z" />
<glyph unicode="&#xc9;" horiz-adv-x="1110" d="M191 0v1480h827v-157h-617v-475h517v-155h-517v-536h660v-157h-870zM453 1604l222 296h222l-271 -296h-173z" />
<glyph unicode="&#xca;" horiz-adv-x="1110" d="M191 0v1480h827v-157h-617v-475h517v-155h-517v-536h660v-157h-870zM293 1604l222 296h222l222 -296h-173l-160 197l-160 -197h-173z" />
<glyph unicode="&#xcb;" horiz-adv-x="1110" d="M191 0v1480h827v-157h-617v-475h517v-155h-517v-536h660v-157h-870zM342 1604v173h173v-173h-173zM737 1604v173h173v-173h-173z" />
<glyph unicode="&#xcc;" horiz-adv-x="590" d="M23 1900h222l222 -296h-173zM189 0v1480h210v-1480h-210z" />
<glyph unicode="&#xcd;" horiz-adv-x="590" d="M122 1604l222 296h222l-271 -296h-173zM190 0v1480h210v-1480h-210z" />
<glyph unicode="&#xce;" horiz-adv-x="590" d="M-38 1604l222 296h222l222 -296h-173l-160 197l-160 -197h-173zM190 0v1480h210v-1480h-210z" />
<glyph unicode="&#xcf;" horiz-adv-x="590" d="M11 1604v173h173v-173h-173zM190 0v1480h210v-1480h-210zM406 1604v173h173v-173h-173z" />
<glyph unicode="&#xd0;" horiz-adv-x="1534" d="M-31 679v157h222v644h492q285 0 432 -82.5t231 -241t84 -381.5q0 -211 -77 -387t-233 -282t-434 -106h-495v679h-222zM401 157h269q210 0 314.5 66.5t163.5 210.5t59 321q0 156 -51 284.5t-165 206t-417 77.5h-173v-487h333v-157h-333v-522z" />
<glyph unicode="&#xd1;" horiz-adv-x="1513" d="M191 0v1480h206l745 -1143v1143h180v-1480h-205l-746 1143v-1143h-180zM448 1604q6 119 55.5 176.5t127.5 57.5q67 0 131 -26l47 -19l69 -31q23 -10 40 -10q21 0 45.5 16t27.5 70h123q0 -83 -24 -130.5t-61.5 -75.5t-98.5 -28q-76 0 -136 28l-60 28q-35 16 -52 23t-38 7 q-64 0 -73 -86h-123z" />
<glyph unicode="&#xd2;" horiz-adv-x="1591" d="M104 740q0 220 81.5 400.5t240.5 278.5t370 98t370 -98t240.5 -278.5t81.5 -400.5q0 -219 -80.5 -398.5t-238 -279t-373.5 -99.5q-210 0 -365.5 94t-241 274.5t-85.5 408.5zM327 742q0 -288 122.5 -455t346.5 -167t346.5 167t122.5 455q0 287 -123.5 452.5t-345.5 165.5 t-345.5 -165.5t-123.5 -452.5zM525 1900h222l222 -296h-173z" />
<glyph unicode="&#xd3;" horiz-adv-x="1591" d="M104 740q0 220 81.5 400.5t240.5 278.5t370 98t370 -98t240.5 -278.5t81.5 -400.5q0 -219 -80.5 -398.5t-238 -279t-373.5 -99.5q-210 0 -365.5 94t-241 274.5t-85.5 408.5zM327 742q0 -288 122.5 -455t346.5 -167t346.5 167t122.5 455q0 287 -123.5 452.5t-345.5 165.5 t-345.5 -165.5t-123.5 -452.5zM623 1604l222 296h222l-271 -296h-173z" />
<glyph unicode="&#xd4;" horiz-adv-x="1591" d="M104 740q0 220 81.5 400.5t240.5 278.5t370 98t370 -98t240.5 -278.5t81.5 -400.5q0 -219 -80.5 -398.5t-238 -279t-373.5 -99.5q-210 0 -365.5 94t-241 274.5t-85.5 408.5zM327 742q0 -288 122.5 -455t346.5 -167t346.5 167t122.5 455q0 287 -123.5 452.5t-345.5 165.5 t-345.5 -165.5t-123.5 -452.5zM463 1604l222 296h222l222 -296h-173l-160 197l-160 -197h-173z" />
<glyph unicode="&#xd5;" horiz-adv-x="1591" d="M104 740q0 220 81.5 400.5t240.5 278.5t370 98t370 -98t240.5 -278.5t81.5 -400.5q0 -219 -80.5 -398.5t-238 -279t-373.5 -99.5q-210 0 -365.5 94t-241 274.5t-85.5 408.5zM327 742q0 -288 122.5 -455t346.5 -167t346.5 167t122.5 455q0 287 -123.5 452.5t-345.5 165.5 t-345.5 -165.5t-123.5 -452.5zM463 1604q6 119 55.5 176.5t127.5 57.5q67 0 131 -26l47 -19l69 -31q23 -10 40 -10q21 0 45.5 16t27.5 70h123q0 -83 -24 -130.5t-61.5 -75.5t-98.5 -28q-76 0 -136 28l-60 28q-35 16 -52 23t-38 7q-64 0 -73 -86h-123z" />
<glyph unicode="&#xd6;" horiz-adv-x="1591" d="M104 740q0 220 81.5 400.5t240.5 278.5t370 98t370 -98t240.5 -278.5t81.5 -400.5q0 -219 -80.5 -398.5t-238 -279t-373.5 -99.5q-210 0 -365.5 94t-241 274.5t-85.5 408.5zM327 742q0 -288 122.5 -455t346.5 -167t346.5 167t122.5 455q0 287 -123.5 452.5t-345.5 165.5 t-345.5 -165.5t-123.5 -452.5zM512 1604v173h173v-173h-173zM907 1604v173h173v-173h-173z" />
<glyph unicode="&#xd7;" d="M105 159l437 433l-437 428l103 115l440 -440l439 440l104 -107l-438 -436l438 -438l-102 -105l-441 436l-439 -436z" />
<glyph unicode="&#xd8;" horiz-adv-x="1591" d="M104 -37l173 226q-72 92 -104 169.5t-50.5 177.5t-18.5 203q0 329 178 554t529 225q74 0 138.5 -11t122 -33t134.5 -70l88 113h194l-173 -225q70 -84 102.5 -159t51.5 -176.5t19 -207.5q0 -349 -184 -567.5t-516 -218.5q-70 0 -133 10.5t-123 32.5t-146 70l-88 -113h-194 zM327 748q0 -217 79 -386l689 894q-129 104 -299 104q-224 0 -346.5 -167t-122.5 -445zM498 225q49 -43 92.5 -62.5t98.5 -31t111 -11.5q216 0 340.5 164.5t124.5 455.5q0 72 -8 141t-21.5 119t-48.5 120z" />
<glyph unicode="&#xd9;" horiz-adv-x="1419" d="M179 548v932h210v-934q0 -244 91 -335t254 -91q103 0 174 35.5t110 115.5t39 268v941h184v-938q0 -241 -59.5 -347.5t-168 -169t-287.5 -62.5q-191 0 -309 65t-178 178t-60 342zM438 1900h222l222 -296h-173z" />
<glyph unicode="&#xda;" horiz-adv-x="1419" d="M179 548v932h210v-934q0 -244 91 -335t254 -91q103 0 174 35.5t110 115.5t39 268v941h184v-938q0 -241 -59.5 -347.5t-168 -169t-287.5 -62.5q-191 0 -309 65t-178 178t-60 342zM536 1604l222 296h222l-271 -296h-173z" />
<glyph unicode="&#xdb;" horiz-adv-x="1419" d="M179 548v932h210v-934q0 -244 91 -335t254 -91q103 0 174 35.5t110 115.5t39 268v941h184v-938q0 -241 -59.5 -347.5t-168 -169t-287.5 -62.5q-191 0 -309 65t-178 178t-60 342zM376 1604l222 296h222l222 -296h-173l-160 197l-160 -197h-173z" />
<glyph unicode="&#xdc;" horiz-adv-x="1419" d="M179 548v932h210v-934q0 -244 91 -335t254 -91q103 0 174 35.5t110 115.5t39 268v941h184v-938q0 -241 -59.5 -347.5t-168 -169t-287.5 -62.5q-191 0 -309 65t-178 178t-60 342zM425 1604v173h173v-173h-173zM820 1604v173h173v-173h-173z" />
<glyph unicode="&#xdd;" horiz-adv-x="1276" d="M17 1480h240l384 -668l414 668h195l-529 -858v-622h-210v618zM461 1604l222 296h222l-271 -296h-173z" />
<glyph unicode="&#xde;" horiz-adv-x="1132" d="M191 0v1480h208v-293h195q213 0 306.5 -42t144.5 -128.5t51 -217.5q0 -154 -66.5 -267.5t-213 -175t-324.5 -61.5h-93v-295h-208zM399 449h109q197 0 282 97t85 237q0 76 -29 129t-93.5 85t-224.5 32h-129v-580z" />
<glyph unicode="&#xdf;" horiz-adv-x="1225" d="M197 0v1151q0 192 35 272t114 130.5t218 50.5q183 0 273.5 -80t90.5 -184q0 -54 -18 -111.5t-113 -183.5q-40 -52 -58.5 -82.5t-18.5 -58.5q0 -29 12.5 -55.5t97.5 -99.5l161 -136q173 -146 173 -315q0 -126 -83.5 -224.5t-264.5 -98.5q-141 0 -282 58v169 q183 -79 282 -79q75 0 118.5 44.5t43.5 113.5q0 46 -19 82t-96 102l-191 164q-125 108 -125 219q0 38 13 81t87 157q53 81 68 129.5t15 89.5q0 70 -46 110.5t-124 40.5q-83 0 -124.5 -55.5t-41.5 -166.5v-1234h-197z" />
<glyph unicode="&#xe0;" horiz-adv-x="1131" d="M103 273q0 160 138 264.5t441 104.5h46v131q0 78 -21 113.5t-65.5 55.5t-110.5 20q-153 0 -334 -96v163q199 81 375 81q96 0 176.5 -30.5t128.5 -96t48 -210.5v-492q0 -82 13 -110.5t36.5 -43.5t54.5 -15q13 0 38 4l14 -109q-67 -32 -148 -32q-54 0 -104 35t-72 128 q-88 -81 -173.5 -122t-167.5 -41q-115 0 -214 76t-99 222zM300 305q0 -71 51.5 -120t120.5 -49q62 0 126 27.5t130 81.5v281l-63 2q-155 0 -260 -60t-105 -163zM321 1579h222l222 -296h-173z" />
<glyph unicode="&#xe1;" horiz-adv-x="1131" d="M103 273q0 160 138 264.5t441 104.5h46v131q0 78 -21 113.5t-65.5 55.5t-110.5 20q-153 0 -334 -96v163q199 81 375 81q96 0 176.5 -30.5t128.5 -96t48 -210.5v-492q0 -82 13 -110.5t36.5 -43.5t54.5 -15q13 0 38 4l14 -109q-67 -32 -148 -32q-54 0 -104 35t-72 128 q-88 -81 -173.5 -122t-167.5 -41q-115 0 -214 76t-99 222zM300 305q0 -71 51.5 -120t120.5 -49q62 0 126 27.5t130 81.5v281l-63 2q-155 0 -260 -60t-105 -163zM419 1283l222 296h222l-271 -296h-173z" />
<glyph unicode="&#xe2;" horiz-adv-x="1131" d="M103 273q0 160 138 264.5t441 104.5h46v131q0 78 -21 113.5t-65.5 55.5t-110.5 20q-153 0 -334 -96v163q199 81 375 81q96 0 176.5 -30.5t128.5 -96t48 -210.5v-492q0 -82 13 -110.5t36.5 -43.5t54.5 -15q13 0 38 4l14 -109q-67 -32 -148 -32q-54 0 -104 35t-72 128 q-88 -81 -173.5 -122t-167.5 -41q-115 0 -214 76t-99 222zM222 1283l222 296h222l222 -296h-173l-160 197l-160 -197h-173zM300 305q0 -71 51.5 -120t120.5 -49q62 0 126 27.5t130 81.5v281l-63 2q-155 0 -260 -60t-105 -163z" />
<glyph unicode="&#xe3;" horiz-adv-x="1131" d="M103 273q0 160 138 264.5t441 104.5h46v131q0 78 -21 113.5t-65.5 55.5t-110.5 20q-153 0 -334 -96v163q199 81 375 81q96 0 176.5 -30.5t128.5 -96t48 -210.5v-492q0 -82 13 -110.5t36.5 -43.5t54.5 -15q13 0 38 4l14 -109q-67 -32 -148 -32q-54 0 -104 35t-72 128 q-88 -81 -173.5 -122t-167.5 -41q-115 0 -214 76t-99 222zM235 1283q6 119 55.5 176.5t127.5 57.5q67 0 131 -26l47 -19l69 -31q23 -10 40 -10q21 0 45.5 16t27.5 70h123q0 -83 -24 -130.5t-61.5 -75.5t-98.5 -28q-76 0 -136 28l-60 28q-35 16 -52 23t-38 7q-64 0 -73 -86 h-123zM300 305q0 -71 51.5 -120t120.5 -49q62 0 126 27.5t130 81.5v281l-63 2q-155 0 -260 -60t-105 -163z" />
<glyph unicode="&#xe4;" horiz-adv-x="1131" d="M103 273q0 160 138 264.5t441 104.5h46v131q0 78 -21 113.5t-65.5 55.5t-110.5 20q-153 0 -334 -96v163q199 81 375 81q96 0 176.5 -30.5t128.5 -96t48 -210.5v-492q0 -82 13 -110.5t36.5 -43.5t54.5 -15q13 0 38 4l14 -109q-67 -32 -148 -32q-54 0 -104 35t-72 128 q-88 -81 -173.5 -122t-167.5 -41q-115 0 -214 76t-99 222zM284 1283v173h173v-173h-173zM300 305q0 -71 51.5 -120t120.5 -49q62 0 126 27.5t130 81.5v281l-63 2q-155 0 -260 -60t-105 -163zM679 1283v173h173v-173h-173z" />
<glyph unicode="&#xe5;" horiz-adv-x="1131" d="M103 273q0 160 138 264.5t441 104.5h46v131q0 78 -21 113.5t-65.5 55.5t-110.5 20q-153 0 -334 -96v163q199 81 375 81q96 0 176.5 -30.5t128.5 -96t48 -210.5v-492q0 -82 13 -110.5t36.5 -43.5t54.5 -15q13 0 38 4l14 -109q-67 -32 -148 -32q-54 0 -104 35t-72 128 q-88 -81 -173.5 -122t-167.5 -41q-115 0 -214 76t-99 222zM300 305q0 -71 51.5 -120t120.5 -49q62 0 126 27.5t130 81.5v281l-63 2q-155 0 -260 -60t-105 -163zM408 1443q0 67 47.5 114t112.5 47q66 0 113.5 -47t47.5 -114q0 -66 -47.5 -113t-113.5 -47t-113 47t-47 113z M482 1443q0 -35 25 -60.5t61 -25.5t61 25.5t25 60.5q0 36 -25 61.5t-61 25.5t-61 -25.5t-25 -61.5z" />
<glyph unicode="&#xe6;" horiz-adv-x="1743" d="M103 273q0 160 138 264.5t441 104.5h46v131q0 78 -21 113.5t-65.5 55.5t-110.5 20q-153 0 -334 -96v163q199 81 376 81q96 0 172 -30t132 -91q49 49 91.5 72.5t97.5 36t114 12.5q146 0 243 -75t136 -200t39 -323h-672q10 -142 51.5 -217.5t117.5 -123.5t196 -48 q60 0 124 10.5t183 60.5v-157q-193 -62 -359 -62q-135 0 -247 56t-183 162q-95 -109 -193 -163.5t-200 -54.5q-115 0 -214 76t-99 222zM300 305q0 -71 51.5 -120t120.5 -49q62 0 126 27.5t130 81.5v281l-63 2q-155 0 -260 -60t-105 -163zM932 648h456q0 180 -63 247.5 t-151 67.5q-104 0 -167 -79.5t-75 -235.5z" />
<glyph unicode="&#xe7;" horiz-adv-x="1049" d="M111 545q0 245 133 405t416 160q58 0 104.5 -5.5t174.5 -29.5v-165q-167 49 -272 49q-166 0 -250 -123.5t-84 -292.5q0 -182 94.5 -295.5t245.5 -113.5q134 0 278 69v-170q-85 -25 -146 -39.5t-141 -18.5l-51 -83q157 -41 157 -145q0 -59 -53 -98t-136 -39q-62 0 -122 17 v77l10 -1l22 -4q14 -3 34 -3q48 0 74.5 20.5t26.5 52.5q0 67 -123 90l72 118q-140 15 -247.5 94.5t-162 199.5t-54.5 274z" />
<glyph unicode="&#xe8;" horiz-adv-x="1141" d="M111 548q0 153 64 291t167.5 205t243.5 67q188 0 300 -135t112 -404l-1 -60h-685q16 -144 62 -222t122.5 -121.5t194.5 -43.5q60 0 119.5 10.5t182.5 55.5v-156q-198 -60 -339 -60q-253 0 -398 170.5t-145 402.5zM319 1579h222l222 -296h-173zM321 660h479 q0 163 -63.5 233t-162.5 70q-113 0 -176.5 -75.5t-76.5 -227.5z" />
<glyph unicode="&#xe9;" horiz-adv-x="1141" d="M111 548q0 153 64 291t167.5 205t243.5 67q188 0 300 -135t112 -404l-1 -60h-685q16 -144 62 -222t122.5 -121.5t194.5 -43.5q60 0 119.5 10.5t182.5 55.5v-156q-198 -60 -339 -60q-253 0 -398 170.5t-145 402.5zM321 660h479q0 163 -63.5 233t-162.5 70 q-113 0 -176.5 -75.5t-76.5 -227.5zM380 1283l222 296h222l-271 -296h-173z" />
<glyph unicode="&#xea;" horiz-adv-x="1141" d="M111 548q0 153 64 291t167.5 205t243.5 67q188 0 300 -135t112 -404l-1 -60h-685q16 -144 62 -222t122.5 -121.5t194.5 -43.5q60 0 119.5 10.5t182.5 55.5v-156q-198 -60 -339 -60q-253 0 -398 170.5t-145 402.5zM270 1283l222 296h222l222 -296h-173l-160 197l-160 -197 h-173zM321 660h479q0 163 -63.5 233t-162.5 70q-113 0 -176.5 -75.5t-76.5 -227.5z" />
<glyph unicode="&#xeb;" horiz-adv-x="1141" d="M111 548q0 153 64 291t167.5 205t243.5 67q188 0 300 -135t112 -404l-1 -60h-685q16 -144 62 -222t122.5 -121.5t194.5 -43.5q60 0 119.5 10.5t182.5 55.5v-156q-198 -60 -339 -60q-253 0 -398 170.5t-145 402.5zM306 1283v173h173v-173h-173zM321 660h479 q0 163 -63.5 233t-162.5 70q-113 0 -176.5 -75.5t-76.5 -227.5zM701 1283v173h173v-173h-173z" />
<glyph unicode="&#xec;" horiz-adv-x="592" d="M25 1579h222l222 -296h-173zM197 0v1086h197v-1086h-197z" />
<glyph unicode="&#xed;" horiz-adv-x="592" d="M123 1283l222 296h222l-271 -296h-173zM197 0v1086h197v-1086h-197z" />
<glyph unicode="&#xee;" horiz-adv-x="592" d="M-37 1283l222 296h222l222 -296h-173l-160 197l-160 -197h-173zM197 0v1086h197v-1086h-197z" />
<glyph unicode="&#xef;" horiz-adv-x="592" d="M12 1283v173h173v-173h-173zM197 0v1086h197v-1086h-197zM407 1283v173h173v-173h-173z" />
<glyph unicode="&#xf0;" horiz-adv-x="1234" d="M109 538q0 154 61.5 283.5t179.5 198t255 68.5q62 0 137 -21q-38 62 -75.5 104t-112.5 103l-242 -162l-81 121l188 129q-136 69 -309 69v148q273 0 467 -112l169 114l85 -123l-124 -81q192 -144 303.5 -354.5t111.5 -445.5q0 -268 -139.5 -435t-366.5 -167 q-147 0 -266.5 70.5t-180 204t-60.5 288.5zM319 537q0 -127 39 -226.5t109.5 -143.5t152.5 -44q128 0 215.5 105.5t87.5 317.5t-82.5 304.5t-215.5 92.5q-150 0 -228 -111.5t-78 -294.5z" />
<glyph unicode="&#xf1;" horiz-adv-x="1271" d="M197 0v1086h197v-204q75 109 174.5 168.5t206.5 59.5q138 0 224 -87.5t86 -242.5v-780h-197v716q0 113 -20 149t-56 55.5t-77 19.5q-73 0 -157.5 -45t-183.5 -192v-703h-197zM333 1283q6 119 55.5 176.5t127.5 57.5q67 0 131 -26l47 -19l69 -31q23 -10 40 -10 q21 0 45.5 16t27.5 70h123q0 -83 -24 -130.5t-61.5 -75.5t-98.5 -28q-76 0 -136 28l-60 28q-35 16 -52 23t-38 7q-64 0 -73 -86h-123z" />
<glyph unicode="&#xf2;" horiz-adv-x="1258" d="M111 543q0 158 61 293.5t177.5 204.5t279.5 69q155 0 270 -63t181.5 -200t66.5 -304q0 -160 -62 -295.5t-177.5 -204t-278.5 -68.5q-155 0 -269.5 63.5t-181.5 200t-67 304.5zM321 543q0 -201 81 -310.5t227 -109.5q147 0 228 109.5t81 310.5q0 202 -81.5 310.5 t-227.5 108.5t-227 -108.5t-81 -310.5zM358 1579h222l222 -296h-173z" />
<glyph unicode="&#xf3;" horiz-adv-x="1258" d="M111 543q0 158 61 293.5t177.5 204.5t279.5 69q155 0 270 -63t181.5 -200t66.5 -304q0 -160 -62 -295.5t-177.5 -204t-278.5 -68.5q-155 0 -269.5 63.5t-181.5 200t-67 304.5zM321 543q0 -201 81 -310.5t227 -109.5q147 0 228 109.5t81 310.5q0 202 -81.5 310.5 t-227.5 108.5t-227 -108.5t-81 -310.5zM456 1283l222 296h222l-271 -296h-173z" />
<glyph unicode="&#xf4;" horiz-adv-x="1258" d="M111 543q0 158 61 293.5t177.5 204.5t279.5 69q155 0 270 -63t181.5 -200t66.5 -304q0 -160 -62 -295.5t-177.5 -204t-278.5 -68.5q-155 0 -269.5 63.5t-181.5 200t-67 304.5zM296 1283l222 296h222l222 -296h-173l-160 197l-160 -197h-173zM321 543q0 -201 81 -310.5 t227 -109.5q147 0 228 109.5t81 310.5q0 202 -81.5 310.5t-227.5 108.5t-227 -108.5t-81 -310.5z" />
<glyph unicode="&#xf5;" horiz-adv-x="1258" d="M111 543q0 158 61 293.5t177.5 204.5t279.5 69q155 0 270 -63t181.5 -200t66.5 -304q0 -160 -62 -295.5t-177.5 -204t-278.5 -68.5q-155 0 -269.5 63.5t-181.5 200t-67 304.5zM296 1283q6 119 55.5 176.5t127.5 57.5q67 0 131 -26l47 -19l69 -31q23 -10 40 -10 q21 0 45.5 16t27.5 70h123q0 -83 -24 -130.5t-61.5 -75.5t-98.5 -28q-76 0 -136 28l-60 28q-35 16 -52 23t-38 7q-64 0 -73 -86h-123zM321 543q0 -201 81 -310.5t227 -109.5q147 0 228 109.5t81 310.5q0 202 -81.5 310.5t-227.5 108.5t-227 -108.5t-81 -310.5z" />
<glyph unicode="&#xf6;" horiz-adv-x="1258" d="M111 543q0 158 61 293.5t177.5 204.5t279.5 69q155 0 270 -63t181.5 -200t66.5 -304q0 -160 -62 -295.5t-177.5 -204t-278.5 -68.5q-155 0 -269.5 63.5t-181.5 200t-67 304.5zM321 543q0 -201 81 -310.5t227 -109.5q147 0 228 109.5t81 310.5q0 202 -81.5 310.5 t-227.5 108.5t-227 -108.5t-81 -310.5zM345 1283v173h173v-173h-173zM740 1283v173h173v-173h-173z" />
<glyph unicode="&#xf7;" d="M105 518v148h1086v-148h-1086zM537 74v222h222v-222h-222zM537 888v222h222v-222h-222z" />
<glyph unicode="&#xf8;" horiz-adv-x="1258" d="M111 -25l127 169q-127 171 -127 398q0 158 61 294t177.5 205t278.5 69q152 0 282 -70l52 70h185l-127 -169q127 -170 127 -398q0 -158 -61 -293.5t-177 -205t-278 -69.5q-152 0 -282 71l-53 -71h-185zM321 546q0 -122 40 -237l444 594q-78 59 -172 59q-147 0 -229.5 -108 t-82.5 -308zM453 183q79 -60 172 -60q148 0 230.5 108.5t82.5 308.5q0 121 -41 237z" />
<glyph unicode="&#xf9;" horiz-adv-x="1271" d="M185 306v780h197v-716q0 -113 20 -149t56 -56t78 -20q72 0 156.5 45t183.5 192v704h197v-1086h-197v204q-76 -110 -175 -169.5t-206 -59.5q-137 0 -223.5 87.5t-86.5 243.5zM358 1579h222l222 -296h-173z" />
<glyph unicode="&#xfa;" horiz-adv-x="1271" d="M185 306v780h197v-716q0 -113 20 -149t56 -56t78 -20q72 0 156.5 45t183.5 192v704h197v-1086h-197v204q-76 -110 -175 -169.5t-206 -59.5q-137 0 -223.5 87.5t-86.5 243.5zM456 1283l222 296h222l-271 -296h-173z" />
<glyph unicode="&#xfb;" horiz-adv-x="1271" d="M185 306v780h197v-716q0 -113 20 -149t56 -56t78 -20q72 0 156.5 45t183.5 192v704h197v-1086h-197v204q-76 -110 -175 -169.5t-206 -59.5q-137 0 -223.5 87.5t-86.5 243.5zM296 1283l222 296h222l222 -296h-173l-160 197l-160 -197h-173z" />
<glyph unicode="&#xfc;" horiz-adv-x="1271" d="M185 306v780h197v-716q0 -113 20 -149t56 -56t78 -20q72 0 156.5 45t183.5 192v704h197v-1086h-197v204q-76 -110 -175 -169.5t-206 -59.5q-137 0 -223.5 87.5t-86.5 243.5zM345 1283v173h173v-173h-173zM740 1283v173h173v-173h-173z" />
<glyph unicode="&#xfd;" horiz-adv-x="1070" d="M16 1086h213l311 -818l332 818h186l-593 -1481h-205l176 395zM364 1283l222 296h222l-271 -296h-173z" />
<glyph unicode="&#xfe;" horiz-adv-x="1289" d="M197 -395v1777h197v-500q61 114 151.5 171t211.5 57q201 0 311 -148t110 -386q0 -257 -124.5 -429t-339.5 -172q-63 0 -120 15t-101.5 43t-98.5 90v-518h-197zM394 259q101 -90 161 -113t129 -23q145 0 214.5 122t69.5 311q0 176 -61.5 279t-190.5 103 q-82 0 -162.5 -44.5t-159.5 -134.5v-500z" />
<glyph unicode="&#xff;" horiz-adv-x="1070" d="M16 1086h213l311 -818l332 818h186l-593 -1481h-205l176 395zM265 1283v173h173v-173h-173zM660 1283v173h173v-173h-173z" />
<glyph unicode="&#x152;" horiz-adv-x="2048" d="M104 740q0 220 81.5 400.5t241 278.5t366.5 98q61 0 116 -8.5t104 -26.5t116 -59v57h827v-157h-617v-475h517v-155l-517 6v-542h660v-157h-870v58q-156 -95 -347 -95q-194 0 -354.5 97.5t-242 278.5t-81.5 401zM327 740q0 -286 122.5 -453t346.5 -167q106 0 177 42 t113.5 130t42.5 277v342q0 181 -36.5 267t-112 134t-187.5 48q-219 0 -342.5 -166t-123.5 -454z" />
<glyph unicode="&#x153;" horiz-adv-x="1901" d="M111 543q0 158 61.5 293.5t178 204.5t271.5 69q77 0 134.5 -18.5t110 -59t107.5 -122.5q51 84 101.5 122t119.5 58t144 20q144 0 241.5 -75t136.5 -200t39 -323h-673q11 -142 52.5 -217.5t117.5 -123.5t195 -48q61 0 125 10.5t183 60.5v-157q-192 -62 -350 -62 q-105 0 -217.5 33t-209.5 166q-75 -114 -160.5 -156.5t-198.5 -42.5q-148 0 -264 66t-180.5 202t-64.5 300zM321 543q0 -204 82 -312t221 -108q76 0 133 41t91 125.5t34 270.5q0 208 -70 305t-188 97q-138 0 -220.5 -107.5t-82.5 -311.5zM1090 648h456q0 180 -63.5 247.5 t-150.5 67.5q-105 0 -167.5 -79.5t-74.5 -235.5z" />
<glyph unicode="&#x178;" horiz-adv-x="1276" d="M17 1480h240l384 -668l414 668h195l-529 -858v-622h-210v618zM349 1604v173h173v-173h-173zM744 1604v173h173v-173h-173z" />
<glyph unicode="&#x2c6;" horiz-adv-x="1258" d="M296 1283l222 296h222l222 -296h-173l-160 197l-160 -197h-173z" />
<glyph unicode="&#x2dc;" horiz-adv-x="1258" d="M296 1283q6 119 55.5 176.5t127.5 57.5q67 0 131 -26l47 -19l69 -31q23 -10 40 -10q21 0 45.5 16t27.5 70h123q0 -83 -24 -130.5t-61.5 -75.5t-98.5 -28q-76 0 -136 28l-60 28q-35 16 -52 23t-38 7q-64 0 -73 -86h-123z" />
<glyph unicode="&#x2000;" horiz-adv-x="950" />
<glyph unicode="&#x2001;" horiz-adv-x="1900" />
<glyph unicode="&#x2002;" horiz-adv-x="950" />
<glyph unicode="&#x2003;" horiz-adv-x="1900" />
<glyph unicode="&#x2004;" horiz-adv-x="633" />
<glyph unicode="&#x2005;" horiz-adv-x="475" />
<glyph unicode="&#x2006;" horiz-adv-x="316" />
<glyph unicode="&#x2007;" horiz-adv-x="316" />
<glyph unicode="&#x2008;" horiz-adv-x="237" />
<glyph unicode="&#x2009;" horiz-adv-x="380" />
<glyph unicode="&#x200a;" horiz-adv-x="105" />
<glyph unicode="&#x2010;" horiz-adv-x="666" d="M111 543v148h444v-148h-444z" />
<glyph unicode="&#x2011;" horiz-adv-x="666" d="M111 543v148h444v-148h-444z" />
<glyph unicode="&#x2012;" horiz-adv-x="666" d="M111 543v148h444v-148h-444z" />
<glyph unicode="&#x2013;" horiz-adv-x="1024" d="M105 543v123h814v-123h-814z" />
<glyph unicode="&#x2014;" horiz-adv-x="2048" d="M99 543v99h1851v-99h-1851z" />
<glyph unicode="&#x2018;" horiz-adv-x="648" d="M200 1012v214q0 168 57.5 253.5t189.5 99.5v-74q-32 -9 -51.5 -34t-32 -63t-12.5 -129v-21h96v-246h-247z" />
<glyph unicode="&#x2019;" horiz-adv-x="648" d="M200 1012v74q32 9 51 33.5t32 63t13 129.5v20h-96v247h247v-214q0 -170 -58 -255t-189 -98z" />
<glyph unicode="&#x201a;" horiz-adv-x="648" d="M200 0v247h247v-214q0 -134 -54 -224.5t-193 -104.5v74q48 14 72 67.5t24 134.5v20h-96z" />
<glyph unicode="&#x201c;" horiz-adv-x="765" d="M111 1061v166q0 129 22.5 187.5t70.5 104.5t104 60v-74q-38 -20 -54 -64.5t-16 -159.5v-23h70v-197h-197zM456 1061v166q0 129 23 187.5t70.5 104.5t104.5 60v-74q-38 -20 -54.5 -64.5t-16.5 -159.5v-23h71v-197h-198z" />
<glyph unicode="&#x201d;" horiz-adv-x="765" d="M111 1061v74q38 20 54.5 65t16.5 159v23h-71v197h197v-166q0 -128 -22 -187t-70 -105t-105 -60zM456 1061v74q39 20 55 64.5t16 159.5v23h-71v197h198v-166q0 -128 -22.5 -187t-70.5 -105t-105 -60z" />
<glyph unicode="&#x201e;" horiz-adv-x="765" d="M111 0v197h197v-166q0 -128 -22 -186.5t-70 -105t-105 -60.5v74q38 20 54.5 64.5t16.5 159.5v23h-71zM456 0v197h198v-166q0 -128 -22.5 -186.5t-70.5 -105t-105 -60.5v74q38 20 54.5 64.5t16.5 159.5v23h-71z" />
<glyph unicode="&#x2022;" d="M500 586q0 61 44 104.5t104 43.5t104 -43.5t44 -104.5t-43.5 -104.5t-104.5 -43.5t-104.5 43.5t-43.5 104.5z" />
<glyph unicode="&#x2026;" horiz-adv-x="2048" d="M247 0v197h197v-197h-197zM926 0v197h197v-197h-197zM1604 0v197h197v-197h-197z" />
<glyph unicode="&#x202f;" horiz-adv-x="380" />
<glyph unicode="&#x2039;" horiz-adv-x="679" d="M111 543l395 444l98 -74l-296 -370l296 -370l-98 -74z" />
<glyph unicode="&#x203a;" horiz-adv-x="679" d="M74 173l296 370l-296 370l99 74l394 -444l-394 -444z" />
<glyph unicode="&#x205f;" horiz-adv-x="475" />
<glyph unicode="&#x2122;" horiz-adv-x="1653" d="M0 1357v123h666v-123h-247v-617h-172v617h-247zM790 740v740h233l156 -427l150 427h213v-740h-173v537l-163 -475h-118l-163 432v-494h-135z" />
<glyph unicode="&#xe000;" horiz-adv-x="1085" d="M0 0v1085h1085v-1085h-1085z" />
</font>
</defs>
</svg>
